<mxfile host="www.draw.io" modified="2019-12-17T08:30:35.661Z" agent="Mozilla/5.0 (Macintosh; Intel Mac OS X 10_15_0) AppleWebKit/537.36 (KHTML, like Gecko) Chrome/75.0.3770.142 Safari/537.36" etag="Lm5zrCXlquhVLKzgd5nF" version="12.4.2" type="github" pages="1">
  <diagram id="esLknVKZbZ8jd0jGm5_e" name="第 1 页">
    <mxGraphModel dx="932" dy="536" grid="1" gridSize="10" guides="1" tooltips="1" connect="1" arrows="1" fold="1" page="1" pageScale="1" pageWidth="850" pageHeight="1100" math="0" shadow="0">
      <root>
        <mxCell id="0"/>
        <mxCell id="1" parent="0"/>
        <mxCell id="2OEw2lOvrUbLWLLbQ7my-1" value="&lt;font style=&quot;font-size: 16px&quot;&gt;PGC&lt;/font&gt;" style="rounded=1;whiteSpace=wrap;html=1;" parent="1" vertex="1">
          <mxGeometry x="50" y="120" width="80" height="40" as="geometry"/>
        </mxCell>
        <mxCell id="2OEw2lOvrUbLWLLbQ7my-3" value="" style="rounded=1;whiteSpace=wrap;html=1;" parent="1" vertex="1">
          <mxGeometry x="200" y="70" width="150" height="310" as="geometry"/>
        </mxCell>
        <mxCell id="2OEw2lOvrUbLWLLbQ7my-4" value="&lt;font style=&quot;font-size: 16px&quot;&gt;平台&lt;/font&gt;" style="text;html=1;strokeColor=none;fillColor=none;align=center;verticalAlign=middle;whiteSpace=wrap;rounded=0;" parent="1" vertex="1">
          <mxGeometry x="250" y="80" width="40" height="20" as="geometry"/>
        </mxCell>
        <mxCell id="2OEw2lOvrUbLWLLbQ7my-6" value="&lt;font style=&quot;font-size: 16px&quot;&gt;半成品&lt;/font&gt;" style="rounded=1;whiteSpace=wrap;html=1;" parent="1" vertex="1">
          <mxGeometry x="215" y="120" width="115" height="40" as="geometry"/>
        </mxCell>
        <mxCell id="2OEw2lOvrUbLWLLbQ7my-7" value="&lt;font style=&quot;font-size: 16px&quot;&gt;成品&lt;/font&gt;" style="rounded=1;whiteSpace=wrap;html=1;" parent="1" vertex="1">
          <mxGeometry x="215" y="190" width="115" height="90" as="geometry"/>
        </mxCell>
        <mxCell id="2OEw2lOvrUbLWLLbQ7my-8" value="&lt;font style=&quot;font-size: 16px&quot;&gt;推荐系统&lt;/font&gt;" style="rounded=1;whiteSpace=wrap;html=1;" parent="1" vertex="1">
          <mxGeometry x="212.5" y="320" width="115" height="40" as="geometry"/>
        </mxCell>
        <mxCell id="2OEw2lOvrUbLWLLbQ7my-9" value="筛选" style="endArrow=classic;html=1;exitX=0.5;exitY=1;exitDx=0;exitDy=0;" parent="1" source="2OEw2lOvrUbLWLLbQ7my-7" edge="1">
          <mxGeometry width="50" height="50" relative="1" as="geometry">
            <mxPoint x="30" y="410" as="sourcePoint"/>
            <mxPoint x="274" y="320" as="targetPoint"/>
          </mxGeometry>
        </mxCell>
        <mxCell id="2OEw2lOvrUbLWLLbQ7my-10" value="" style="rounded=1;whiteSpace=wrap;html=1;" parent="1" vertex="1">
          <mxGeometry x="460" y="40" width="150" height="130" as="geometry"/>
        </mxCell>
        <mxCell id="2OEw2lOvrUbLWLLbQ7my-13" value="&lt;font style=&quot;font-size: 16px&quot;&gt;生产&lt;/font&gt;" style="endArrow=classic;html=1;exitX=1;exitY=0.25;exitDx=0;exitDy=0;entryX=0;entryY=0.25;entryDx=0;entryDy=0;" parent="1" source="2OEw2lOvrUbLWLLbQ7my-1" target="2OEw2lOvrUbLWLLbQ7my-6" edge="1">
          <mxGeometry width="50" height="50" relative="1" as="geometry">
            <mxPoint x="90" y="250" as="sourcePoint"/>
            <mxPoint x="140" y="200" as="targetPoint"/>
          </mxGeometry>
        </mxCell>
        <mxCell id="2OEw2lOvrUbLWLLbQ7my-14" value="&lt;font style=&quot;font-size: 16px&quot;&gt;回报&lt;/font&gt;" style="endArrow=classic;html=1;exitX=0;exitY=0.75;exitDx=0;exitDy=0;entryX=1;entryY=0.75;entryDx=0;entryDy=0;" parent="1" source="2OEw2lOvrUbLWLLbQ7my-6" target="2OEw2lOvrUbLWLLbQ7my-1" edge="1">
          <mxGeometry width="50" height="50" relative="1" as="geometry">
            <mxPoint x="90" y="300" as="sourcePoint"/>
            <mxPoint x="140" y="250" as="targetPoint"/>
          </mxGeometry>
        </mxCell>
        <mxCell id="2OEw2lOvrUbLWLLbQ7my-16" value="&lt;font style=&quot;font-size: 16px&quot;&gt;经纪公司&lt;/font&gt;" style="text;html=1;strokeColor=none;fillColor=none;align=center;verticalAlign=middle;whiteSpace=wrap;rounded=0;" parent="1" vertex="1">
          <mxGeometry x="500" y="60" width="70" height="20" as="geometry"/>
        </mxCell>
        <mxCell id="2OEw2lOvrUbLWLLbQ7my-17" value="&lt;font style=&quot;font-size: 16px&quot;&gt;艺人&lt;/font&gt;" style="rounded=1;whiteSpace=wrap;html=1;" parent="1" vertex="1">
          <mxGeometry x="477.5" y="100" width="115" height="40" as="geometry"/>
        </mxCell>
        <mxCell id="2OEw2lOvrUbLWLLbQ7my-18" value="&lt;font style=&quot;font-size: 16px&quot;&gt;购买&lt;/font&gt;" style="endArrow=classic;html=1;exitX=1;exitY=0.5;exitDx=0;exitDy=0;entryX=0;entryY=0.25;entryDx=0;entryDy=0;" parent="1" source="2OEw2lOvrUbLWLLbQ7my-6" target="2OEw2lOvrUbLWLLbQ7my-10" edge="1">
          <mxGeometry width="50" height="50" relative="1" as="geometry">
            <mxPoint x="90" y="410" as="sourcePoint"/>
            <mxPoint x="140" y="360" as="targetPoint"/>
          </mxGeometry>
        </mxCell>
        <mxCell id="2OEw2lOvrUbLWLLbQ7my-19" value="&lt;font style=&quot;font-size: 16px&quot;&gt;生产&lt;/font&gt;" style="endArrow=classic;html=1;exitX=0;exitY=0.5;exitDx=0;exitDy=0;entryX=1;entryY=0.25;entryDx=0;entryDy=0;" parent="1" source="2OEw2lOvrUbLWLLbQ7my-17" target="2OEw2lOvrUbLWLLbQ7my-7" edge="1">
          <mxGeometry width="50" height="50" relative="1" as="geometry">
            <mxPoint x="130" y="420" as="sourcePoint"/>
            <mxPoint x="330" y="235" as="targetPoint"/>
          </mxGeometry>
        </mxCell>
        <mxCell id="2OEw2lOvrUbLWLLbQ7my-20" value="&lt;font style=&quot;font-size: 16px&quot;&gt;回报&lt;/font&gt;" style="endArrow=classic;html=1;exitX=1;exitY=0;exitDx=0;exitDy=0;entryX=0;entryY=0.5;entryDx=0;entryDy=0;" parent="1" source="2OEw2lOvrUbLWLLbQ7my-7" target="2OEw2lOvrUbLWLLbQ7my-10" edge="1">
          <mxGeometry width="50" height="50" relative="1" as="geometry">
            <mxPoint x="110" y="420" as="sourcePoint"/>
            <mxPoint x="160" y="370" as="targetPoint"/>
          </mxGeometry>
        </mxCell>
        <mxCell id="2OEw2lOvrUbLWLLbQ7my-21" value="&lt;font style=&quot;font-size: 16px&quot;&gt;用户&lt;/font&gt;" style="rounded=1;whiteSpace=wrap;html=1;" parent="1" vertex="1">
          <mxGeometry x="460" y="220" width="150" height="60" as="geometry"/>
        </mxCell>
        <mxCell id="2OEw2lOvrUbLWLLbQ7my-22" value="&lt;font style=&quot;font-size: 16px&quot;&gt;购买&lt;/font&gt;" style="endArrow=classic;html=1;exitX=1;exitY=0.5;exitDx=0;exitDy=0;" parent="1" source="2OEw2lOvrUbLWLLbQ7my-7" target="2OEw2lOvrUbLWLLbQ7my-21" edge="1">
          <mxGeometry width="50" height="50" relative="1" as="geometry">
            <mxPoint x="410" y="300" as="sourcePoint"/>
            <mxPoint x="280" y="390" as="targetPoint"/>
          </mxGeometry>
        </mxCell>
        <mxCell id="2OEw2lOvrUbLWLLbQ7my-23" value="&lt;font style=&quot;font-size: 16px&quot;&gt;评分/评价&lt;/font&gt;" style="endArrow=classic;html=1;exitX=0;exitY=0.75;exitDx=0;exitDy=0;entryX=1;entryY=0.75;entryDx=0;entryDy=0;" parent="1" source="2OEw2lOvrUbLWLLbQ7my-21" target="2OEw2lOvrUbLWLLbQ7my-7" edge="1">
          <mxGeometry width="50" height="50" relative="1" as="geometry">
            <mxPoint x="200" y="510" as="sourcePoint"/>
            <mxPoint x="260" y="440" as="targetPoint"/>
          </mxGeometry>
        </mxCell>
        <mxCell id="2OEw2lOvrUbLWLLbQ7my-24" value="&lt;font style=&quot;font-size: 16px&quot;&gt;导演&lt;/font&gt;" style="rounded=1;whiteSpace=wrap;html=1;" parent="1" vertex="1">
          <mxGeometry x="460" y="350" width="150" height="60" as="geometry"/>
        </mxCell>
        <mxCell id="2OEw2lOvrUbLWLLbQ7my-25" value="&lt;font style=&quot;font-size: 16px&quot;&gt;推荐&lt;/font&gt;" style="endArrow=classic;html=1;exitX=1;exitY=0.5;exitDx=0;exitDy=0;entryX=0;entryY=0.75;entryDx=0;entryDy=0;" parent="1" source="2OEw2lOvrUbLWLLbQ7my-8" target="2OEw2lOvrUbLWLLbQ7my-24" edge="1">
          <mxGeometry width="50" height="50" relative="1" as="geometry">
            <mxPoint x="180" y="460" as="sourcePoint"/>
            <mxPoint x="230" y="410" as="targetPoint"/>
          </mxGeometry>
        </mxCell>
        <mxCell id="2OEw2lOvrUbLWLLbQ7my-26" value="&lt;font style=&quot;font-size: 16px&quot;&gt;评分/评价&lt;/font&gt;" style="endArrow=classic;html=1;exitX=0;exitY=0.25;exitDx=0;exitDy=0;" parent="1" source="2OEw2lOvrUbLWLLbQ7my-24" target="2OEw2lOvrUbLWLLbQ7my-7" edge="1">
          <mxGeometry width="50" height="50" relative="1" as="geometry">
            <mxPoint x="160" y="480" as="sourcePoint"/>
            <mxPoint x="210" y="430" as="targetPoint"/>
          </mxGeometry>
        </mxCell>
        <mxCell id="2OEw2lOvrUbLWLLbQ7my-27" value="&lt;font style=&quot;font-size: 16px&quot;&gt;签约&lt;/font&gt;" style="endArrow=classic;startArrow=classic;html=1;exitX=1;exitY=0.454;exitDx=0;exitDy=0;exitPerimeter=0;entryX=1;entryY=0.5;entryDx=0;entryDy=0;" parent="1" source="2OEw2lOvrUbLWLLbQ7my-10" target="2OEw2lOvrUbLWLLbQ7my-24" edge="1">
          <mxGeometry width="50" height="50" relative="1" as="geometry">
            <mxPoint x="330" y="500" as="sourcePoint"/>
            <mxPoint x="380" y="450" as="targetPoint"/>
            <Array as="points">
              <mxPoint x="680" y="99"/>
              <mxPoint x="680" y="380"/>
            </Array>
          </mxGeometry>
        </mxCell>
      </root>
    </mxGraphModel>
  </diagram>
</mxfile>
